<?xml version="1.0" encoding="UTF-8" standalone="no"?>
<svg
   xmlns="http://www.w3.org/2000/svg"
   xmlns:xlink="http://www.w3.org/1999/xlink"
   viewBox="0 0 437.1467 504.09558"
   version="1.1"
   id="svg3358">
  
  <defs
     id="defs3362" />
  
  <path
     id="path3368"
     d="m 222.55137,501.70168 c -13.4973,-5.33317 -24.42775,-21.70557 -34.1786,-51.19514 -9.60283,-29.04195 -11.0817,-46.63292 -5.40632,-64.30817 10.92511,-34.02491 47.38004,-85.19747 112.22796,-157.5368 1.57849,-1.76085 2.87451,-6.55673 4.05356,-15 0.95327,-6.82637 1.62339,-12.53498 1.48919,-12.68583 -0.13421,-0.15084 -4.86695,6.74096 -10.51721,15.31512 -7.51146,11.3985 -12.19826,17.10988 -17.43408,21.24536 -19.57205,15.4589 -38.77527,17.23845 -45.67596,4.23277 -5.47755,-10.32354 2.01571,-38.94935 15.32651,-58.55038 l 5.15695,-7.59394 -6.32171,2.49179 c -9.5608,3.76851 -18.77166,8.65841 -18.77166,9.96558 0,4.13298 -4.19896,31.98798 -5.84055,38.74489 -6.03729,24.85001 -24.09253,43.91016 -44.47195,46.94712 -18.24639,2.71909 -29.84151,-5.80771 -36.57853,-26.89905 -1.20781,-3.78125 -2.36778,-7.07572 -2.57772,-7.32106 -0.63376,-0.74063 -31.9485,26.02674 -60.98491,52.12898 -15.030764,13.51189 -28.530764,25.25027 -30,26.08528 C 30.180844,324.51174 0,307.35277 0,293.86326 c 0,-1.92968 1.430059,-5.2019 3.184747,-7.28722 4.848384,-5.76199 7.565585,-11.82669 12.262818,-27.37024 C 30.163063,210.51095 44.93309,106.56111 49.487614,19.635645 50.278581,4.539613 50.598795,2.883239 52.991568,1.510645 54.664814,0.550802 61.322091,0 71.25,0 85.12959,0 87.54207,0.328475 92.8466,2.940515 104.09405,8.478949 104.94257,15.321611 97.4107,39.746246 81.23598,92.1982 50.58184,251.14539 52.712691,271.51342 L 53.125,275.45454 71.67935,261.94766 C 95.8374,244.36152 128.75,218.21054 128.75,216.6017 c 0,-0.69423 -2.8125,-4.50874 -6.25,-8.4767 -3.4375,-3.96796 -6.25,-8.14473 -6.25,-9.28171 0,-1.13699 3.52569,-5.84185 7.83486,-10.45527 4.30916,-4.61341 11.01584,-13.16927 14.90371,-19.01302 10.74178,-16.14564 18.60392,-24.2735 27.91294,-28.85633 7.51964,-3.7019 8.7255,-3.92427 18.49888,-3.4113 8.42138,0.44202 11.554,1.19287 16.10581,3.86041 7.32672,4.29376 12.89027,10.72125 16.66166,19.24904 2.68137,6.06303 3.351,6.74537 5.86699,5.97825 15.3223,-4.67168 51.71046,-16.8448 61.94747,-20.72358 14.98172,-5.67655 17.36919,-5.49905 23.13489,1.72005 8.21103,10.28082 9.12331,10.93346 15.28315,10.93346 10.92922,0 12.1574,2.68099 9.44854,20.625 -0.62271,4.125 -1.50024,11.61826 -1.95004,16.65169 -0.7959,8.90646 -0.75016,9.11548 1.70684,7.80053 1.38855,-0.74312 12.09353,-10.51142 23.78881,-21.70732 33.87378,-32.42735 46.84121,-37.88726 63.49855,-26.73595 7.72339,5.17044 13.64576,16.36153 15.58741,29.4544 4.45033,30.00929 -13.94711,68.23559 -38.70945,80.43078 -7.75508,3.81928 -9.21761,4.10587 -20.95326,4.10587 -11.72367,0 -12.9907,-0.24759 -17.90884,-3.49945 -9.10751,-6.02191 -16.03537,-19.61544 -19.97954,-39.20298 L 336.875,215.84516 333.4375,217.65 c -1.89063,0.99266 -3.4375,2.52185 -3.4375,3.3982 0,0.87635 -3.08241,27.71776 -6.8498,59.64758 -12.96615,109.89232 -19.67207,145.29988 -32.6568,172.42922 -11.13435,23.26332 -25.37416,41.04557 -38.08511,47.55956 -8.05024,4.12551 -20.88364,4.5627 -29.85691,1.01712 z m 22.34652,-20.39887 c 14.95377,-7.7329 31.2406,-65.89357 42.54457,-151.92781 3.25469,-24.77129 9.00976,-81.46445 8.33788,-82.13633 -0.60883,-0.60882 -39.13701,55.48056 -51.87024,75.51277 -11.64305,18.31711 -19.46854,33.64276 -23.48751,45.99856 -9.90358,30.44725 0.53141,102.37121 16.24222,111.95092 4.73469,2.88699 3.92819,2.82803 8.23308,0.60189 z M 186.92457,250.44584 c 3.24404,-2.99024 7.13747,-8.4053 9.21219,-12.8125 C 200.7028,227.93401 205,209.45001 205,199.50895 l 0,-7.68158 -3.4375,0.8148 c -1.89063,0.44814 -9.90625,2.77609 -17.8125,5.17323 -7.90625,2.39712 -15.28654,4.61899 -16.40064,4.93747 -5.30856,1.51752 -4.58911,41.52002 0.90034,50.05963 1.43481,2.23205 2.96865,2.8125 7.43205,2.8125 4.85649,0 6.39099,-0.70689 11.24282,-5.17916 z m 206.38206,-0.97858 c 5.80708,-2.63685 13.64384,-12.11345 18.21312,-22.02424 2.44912,-5.31215 2.85525,-8.23768 2.85525,-20.56802 0,-13.20895 -0.27414,-14.89468 -3.37951,-20.78151 -5.29485,-10.0374 -7.41027,-10.20804 -22.12928,-1.78499 -17.21159,9.84942 -16.99121,9.45409 -16.99121,30.48185 0,20.41212 2.01131,28.6235 8.30911,33.92275 4.4675,3.75916 6.27578,3.86308 13.12252,0.75416 z M 269.81326,226.49915 c 8.53296,-8.14766 19.31312,-26.54254 23.17119,-39.53853 2.02508,-6.82144 2.72291,-16.33562 1.19818,-16.33562 -0.44957,0 -4.24644,1.92632 -8.4375,4.28071 -15.10527,8.48561 -27.1143,24.02776 -33.76494,43.69873 -2.34004,6.92123 -1.02131,13.97272 2.77852,14.85738 3.27563,0.76263 10.42859,-2.5456 15.05455,-6.96267 z M 187.49258,174.7604 c 7.90216,-2.38087 14.50191,-4.46323 14.66611,-4.62743 0.16421,-0.1642 -0.23729,-2.16693 -0.8922,-4.4505 -2.5048,-8.73372 -8.21856,-11.03771 -15.84323,-6.38853 -4.49863,2.74307 -17.39991,15.51752 -19.34829,19.15809 -1.19508,2.23306 -0.97286,2.35112 2.87745,1.5286 2.29492,-0.49024 10.63799,-2.83935 18.54016,-5.22023 z"
     style="fill:#D3D3D3" />
</svg>
